# AST/ASF file generated using VICON BodyLanguage
# -----------------------------------------------
:version 1.10
:name VICON
:units
  mass 1.0
  length 0.45
  angle deg
:documentation
   .ast/.asf automatically generated from VICON data using
   VICON BodyBuilder and BodyLanguage model FoxedUp or BRILLIANT.MOD
:root
   order TX TY TZ RX RY RZ
   axis XYZ
   position 0 0 0  
   orientation 0 0 0 
:bonedata
  begin
     id 1 
     name lhipjoint
     direction 0.573633 -0.743009 0.344793 
     length 2.46257 
     axis 0 0 0  XYZ
  end
  begin
     id 2 
     name lfemur
     direction 0.34202 -0.939693 0  
     length 7.3842  
     axis 0 0 20  XYZ
    dof rx ry rz
    limits (-160.0 20.0)
           (-70.0 70.0)
           (-60.0 70.0)
  end
  begin
     id 3 
     name ltibia
     direction 0.34202 -0.939693 0   
     length 7.50407   
     axis 0 0 20   XYZ
    dof rx
    limits (-10.0 170.0)
  end
  begin
     id 4 
     name lfoot
     direction 0.110749 -0.304281 0.946123   
     length 1.95925   
     axis -90 7.62852e-016 20   XYZ
    dof rx rz
    limits (-45.0 90.0)
           (-70.0 20.0)
  end
  begin
     id 5 
     name ltoes
     direction 1.53554e-011 -4.21843e-011 1   
     length 0.978318   
     axis -90 7.62852e-016 20   XYZ
    dof rx
    limits (-90.0 20.0)
  end
  begin
     id 6 
     name rhipjoint
     direction -0.488109 -0.791693 0.367385   
     length 2.31113  
     axis 0 0 0  XYZ 
  end
  begin
     id 7 
     name rfemur
     direction -0.34202 -0.939693 0   
     length 7.40965   
     axis 0 0 -20   XYZ
    dof rx ry rz
    limits (-160.0 20.0)
           (-70.0 70.0)
           (-70.0 60.0)
  end
  begin
     id 8 
     name rtibia
     direction -0.34202 -0.939693 0   
     length 7.55548   
     axis 0 0 -20   XYZ
    dof rx
    limits (-10.0 170.0)
 end
 begin
     id 9 
     name rfoot
     direction -0.127594 -0.350561 0.927808   
     length 2.07199  
     axis -90 -7.62852e-016 -20   XYZ
    dof rx rz
    limits (-45.0 90.0)
           (-20.0 70.0)
  end
  begin
     id 10 
     name rtoes
     direction -1.53542e-011 -4.21909e-011 1   
     length 1.02667   
     axis -90 -7.62852e-016 -20   XYZ
    dof rx
    limits (-90.0 20.0)
  end
  begin
     id 11 
     name lowerback
     direction -0.0103342 0.997298 -0.0727278   
     length 2.02836   
     axis 0 0 0   XYZ
    dof rx ry rz
    limits (-20.0 45.0)
           (-30.0 30.0)
           (-30.0 30.0)
  end
  begin
     id 12 
     name upperback
     direction 0.0171146 0.999786 -0.011606   
     length 2.03179   
     axis 0 0 0   XYZ
    dof rx ry rz
    limits (-20.0 45.0)
           (-30.0 30.0)
           (-30.0 30.0)
  end
  begin
     id 13 
     name thorax
     direction 0.0216927 0.999513 0.0224343   
     length 2.03882   
     axis 0 0 0   XYZ
    dof rx ry rz
    limits (-20.0 45.0)
           (-30.0 30.0)
           (-30.0 30.0)
  end
  begin
     id 14 
     name lowerneck
     direction 0.000989287 0.993907 0.110221   
     length 1.75428   
     axis 0 0 0   XYZ
    dof rx ry rz
    limits (-20.0 45.0)
           (-30.0 30.0)
           (-30.0 30.0)
  end
  begin
     id 15 
     name upperneck
     direction -0.0172474 0.994813 -0.100253   
     length 1.77058   
     axis 0 0 0   XYZ
    dof rx ry rz
    limits (-20.0 45.0)
           (-30.0 30.0)
           (-30.0 30.0)
  end
  begin
     id 16
     name head
     direction -0.00486455 0.99894 -0.0457663  
     length 1.77427  
     axis 0 0 0   XYZ
    dof rx ry rz
    limits (-20.0 45.0)
           (-30.0 30.0)
           (-30.0 30.0)
  end
  begin
     id 17 
     name lclavicle
     direction 0.927314 0.333734 -0.169441  
     length 3.97584  
     axis 0 0 0   XYZ
    dof ry rz
    limits (-20.0 10.0)
           (0.0 20.0)
  end
  begin
     id 18 
     name lhumerus
     direction 1 -4.48965e-011 -3.25313e-028   
     length 4.76468   
     axis 180 -30 -90   XYZ
    dof rx ry rz
    limits (-60.0 90.0)
           (-90.0 90.0)
           (-90.0 90.0)
  end
  begin
     id 19
     name lradius
     direction 1 -4.48969e-011 -2.8465e-028   
     length 3.52712   
     axis -180 -30 -90   XYZ
    dof rx
    limits (-10.0 170.0)
  end
  begin
     id 20
     name lwrist
     direction 1 -4.4896e-011 -7.78665e-028   
     length 1.76356   
     axis 1.91374e-015 90 90   XYZ
    dof ry
    limits (-180.0 0.0)
 end
  begin
     id 21 
     name lhand
     direction 1 -4.48959e-011 -1.55733e-027   
     length 0.859564   
     axis 9.9371e-016 90 90   XYZ
    dof rx rz
    limits (-90.0 90.0)
           (-45.0 45.0)
  end
  begin
     id 22 
     name lfingers
     direction 1 -4.48965e-011 -3.11466e-027   
     length 0.693002   
     axis 1.98742e-015 90 90   XYZ
    dof rx
    limits (0.0 90.0)
  end
  begin
     id 23
     name lthumb
     direction 0.707107 -6.34948e-011 0.707107   
     length 0.995017   
     axis -90 45 2.85299e-015   XYZ
    dof rx rz
    limits (-45.0 45.0)
           (-45.0 45.0)
  end
  begin
     id 24 
     name rclavicle
     direction -0.899388 0.348209 -0.264294   
     length 3.68366  
     axis 0 0 0   XYZ 
    dof ry rz
    limits (-10.0 20.0)
           (-20.0 0.0)
  end
  begin
     id 25 
     name rhumerus
     direction -1 -4.48965e-011 -3.01536e-027  
     length 4.90577   
     axis 180 30 90   XYZ
    dof rx ry rz
    limits (-90.0 60.0)
           (-90.0 90.0)
           (-90.0 90.0)
  end
  begin
     id 26 
     name rradius
     direction -1 -4.48966e-011 3.93291e-027   
     length 3.42692   
     axis -180 30 90   XYZ
    dof rx
    limits (-10.0 170.0)
  end
  begin
     id 27 
     name rwrist
     direction -1 -4.48969e-011 -7.78665e-028   
     length 1.71346   
     axis 1.91374e-015 -90 -90   XYZ
    dof ry
    limits (-180.0 0.0)
  end
  begin
     id 28
     name rhand
     direction -1 -4.48967e-011 -1.55733e-027   
     length 0.740957   
     axis 9.9371e-016 -90 -90   XYZ
    dof rx rz
    limits (-90.0 90.0)
           (-45.0 45.0)
  end
  begin
     id 29
     name rfingers
     direction -1 -4.48949e-011 -3.11466e-027   
     length 0.597378   
     axis 1.98742e-015 -90 -90   XYZ
    dof rx
    limits (0.0 90.0)
  end
  begin
     id 30
     name rthumb
     direction -0.707107 -6.34931e-011 0.707107   
     length 0.857719   
     axis -90 -45 -2.85299e-015   XYZ
    dof rx rz
    limits (-45.0 45.0)
           (-45.0 45.0)
  end
:hierarchy
  begin
    root lhipjoint rhipjoint lowerback
    lhipjoint lfemur
    lfemur ltibia
    ltibia lfoot
    lfoot ltoes
    rhipjoint rfemur
    rfemur rtibia
    rtibia rfoot
    rfoot rtoes
    lowerback upperback
    upperback thorax
    thorax lowerneck lclavicle rclavicle
    lowerneck upperneck
    upperneck head
    lclavicle lhumerus
    lhumerus lradius
    lradius lwrist
    lwrist lhand lthumb
    lhand lfingers
    rclavicle rhumerus
    rhumerus rradius
    rradius rwrist
    rwrist rhand rthumb
    rhand rfingers
  end

#!OML:ASF E:\I on waltz\AllaLogoMonkeySwing\Project 1\Capture day 1\Session 1\Subject1.ASF
:FULLY-SPECIFIED
:DEGREES
256
root 1.58603 17.8627 5.4774 -0.914064 1.08581 -2.14074
lowerback 7.64988 0.619426 -1.2835
upperback -2.10236 0.836707 2.20845
thorax -6.55319 0.512005 2.92738
lowerneck -15.702 1.10897 -0.373762
upperneck 14.5166 1.90041 -1.70227
head 7.0405 0.735645 -0.291656
rclavicle 1.63997e-015 -3.18055e-014
rhumerus -30.2394 -23.1018 -76.1791
rradius 27.929
rwrist 1.88286
rhand -6.74408 -37.3478
rfingers 7.12502
rthumb 19.1169 -66.4282
lclavicle 1.63997e-015 -3.18055e-014
lhumerus -38.1002 19.7511 79.3372
lradius 40.9425
lwrist -0.351208
lhand -8.39957 -14.6924
lfingers 7.12502
lthumb 17.5243 14.5378
rfemur -0.475324 0.194736 20.9024
rtibia 16.6453
rfoot -13.9064 -12.4907
rtoes 19.8511
lfemur 4.70694 -0.593098 -16.5149
ltibia 9.11775
lfoot -13.3767 2.75002
ltoes -28.6223
257
root 1.58832 17.8608 5.50704 -0.936884 0.930549 -2.06503
lowerback 7.40267 0.622613 -1.40947
upperback -2.12545 0.82739 2.17679
thorax -6.43685 0.510723 2.96719
lowerneck -15.812 1.23938 -0.246938
upperneck 14.7169 2.0766 -1.82892
head 7.12867 0.812961 -0.333828
rclavicle -8.05078e-015 -3.06128e-014
rhumerus -29.9798 -23.1665 -76.4302
rradius 27.771
rwrist 2.15601
rhand -6.66004 -37.3517
rfingers 7.12502
rthumb 19.1978 -66.4241
lclavicle -8.05078e-015 -3.06128e-014
lhumerus -38.1079 21.2949 78.5944
lradius 39.5265
lwrist -1.01874
lhand -8.60319 -14.0366
lfingers 7.12502
lthumb 17.3284 15.2109
rfemur -0.358367 0.369171 20.8283
rtibia 16.6641
rfoot -14.0186 -12.526
rtoes 19.9913
lfemur 4.9308 -0.437366 -16.6127
ltibia 8.99107
lfoot -13.4957 2.76687
ltoes -28.8934
258
root 1.59091 17.8596 5.53773 -0.952705 0.832784 -2.03976
lowerback 7.16841 0.601549 -1.46601
upperback -2.1713 0.792499 2.13241
thorax -6.349 0.49429 2.95767
lowerneck -15.8691 1.35353 -0.150312
upperneck 14.9374 2.2194 -1.85242
head 7.21294 0.882169 -0.34112
rclavicle -8.57259e-016 -7.95139e-016
rhumerus -29.8302 -23.0349 -76.7484
rradius 27.5628
rwrist 2.17742
rhand -6.73761 -37.171
rfingers 7.12502
rthumb 19.1232 -66.2509
lclavicle -8.57259e-016 -7.95139e-016
lhumerus -38.333 22.8786 77.723
lradius 38.3123
lwrist -1.99236
lhand -8.52091 -13.4935
lfingers 7.12502
lthumb 17.4076 15.747
rfemur -0.221068 0.481867 20.806
rtibia 16.6373
rfoot -13.8507 -12.5955
rtoes 19.0203
lfemur 5.11519 -0.340362 -16.6441
ltibia 8.90789
lfoot -13.587 2.80001
ltoes -28.9687
259
root 1.59521 17.8585 5.57041 -1.00134 0.727473 -2.20008
lowerback 6.94341 0.607405 -1.25756
upperback -2.19697 0.819085 2.0967
thorax -6.24469 0.497511 2.79964
lowerneck -15.8932 1.40278 -0.10447
upperneck 15.1644 2.2685 -1.78238
head 7.29123 0.912551 -0.31975
rclavicle 2.48481e-015 1.15295e-014
rhumerus -29.7384 -22.9715 -77.0562
rradius 27.3823
rwrist 2.27288
rhand -6.79259 -37.1692
rfingers 7.12502
rthumb 19.0703 -66.2543
lclavicle 2.48481e-015 1.15295e-014
lhumerus -38.5499 23.9078 76.9854
lradius 37.096
lwrist -2.99915
lhand -8.19409 -13.0764
lfingers 7.12502
lthumb 17.7221 16.136
rfemur -0.0464645 0.595823 20.9852
rtibia 16.6198
rfoot -14.1526 -12.6606
rtoes 19.5891
lfemur 5.37525 -0.239985 -16.4663
ltibia 8.77508
lfoot -13.6562 2.80468
ltoes -28.9175
260
root 1.60011 17.8567 5.60359 -0.960819 0.611456 -2.24477
lowerback 6.62945 0.634578 -1.15745
upperback -2.23133 0.86262 2.04456
thorax -6.10098 0.512869 2.6843
lowerneck -15.8987 1.46662 -0.0238962
upperneck 15.3593 2.34296 -1.79199
head 7.35768 0.950129 -0.327402
rclavicle -1.40889e-014 -8.74653e-015
rhumerus -29.7102 -22.8474 -77.3517
rradius 27.2707
rwrist 2.61826
rhand -6.7519 -37.003
rfingers 7.12502
rthumb 19.1094 -66.0842
lclavicle -1.40889e-014 -8.74653e-015
lhumerus -38.7529 24.5977 76.4419
lradius 35.9284
lwrist -3.95703
lhand -7.68495 -12.8156
lfingers 7.12502
lthumb 18.212 16.3519
rfemur 0.0537585 0.757635 21.0395
rtibia 16.5861
rfoot -14.2202 -12.716
rtoes 19.5521
lfemur 5.52492 -0.122894 -16.4171
ltibia 8.67732
lfoot -13.7238 2.7819
ltoes -28.7214
261
root 1.60462 17.8543 5.63499 -0.853902 0.50554 -2.08757
lowerback 6.31307 0.665533 -1.29697
upperback -2.29122 0.888651 1.96574
thorax -5.98543 0.528866 2.67899
lowerneck -15.836 1.56924 0.160596
upperneck 15.4691 2.46843 -1.93595
head 7.38828 1.00685 -0.391059
rclavicle 2.59662e-015 9.14409e-015
rhumerus -29.7572 -22.5262 -77.6586
rradius 27.217
rwrist 3.08539
rhand -6.61285 -36.5535
rfingers 7.12502
rthumb 19.2431 -65.6215
lclavicle 2.59662e-015 9.14409e-015
lhumerus -39.0139 25.2675 75.9471
lradius 34.8563
lwrist -5.01683
lhand -7.03777 -12.7122
lfingers 7.12502
lthumb 18.8345 16.3959
rfemur 0.0908666 0.853515 20.8554
rtibia 16.515
rfoot -14.2503 -12.6726
rtoes 19.8617
lfemur 5.53837 -0.00613219 -16.604
ltibia 8.68749
lfoot -13.7929 2.81948
ltoes -28.5834
